<?xml version="1.0" encoding="UTF-8" standalone="no"?>
<!DOCTYPE svg PUBLIC "-//W3C//DTD SVG 1.1//EN" "http://www.w3.org/Graphics/SVG/1.1/DTD/svg11.dtd">
<svg width="100%" height="100%" viewBox="0 0 100 100" version="1.1" xmlns="http://www.w3.org/2000/svg" xmlns:xlink="http://www.w3.org/1999/xlink" xml:space="preserve" style="fill-rule:evenodd;clip-rule:evenodd;stroke-linejoin:round;stroke-miterlimit:1.41421;">
    <g transform="matrix(1.01552,0,0,1.01552,-268.501,-174.27)">
        <path d="M306.841,261.918C306.841,261.918 306.841,257.664 306.676,252.589C306.676,246.206 306.841,243.426 307.169,243.261C307.989,242.936 317.674,246.045 317.674,246.535C317.674,247.517 308.154,262.082 307.496,262.082C307.169,262.082 306.841,261.918 306.841,261.918M323.26,243.426C312.259,240.151 307.169,238.35 307.003,237.86C307.003,237.37 313.902,228.86 322.274,218.877C330.808,208.892 338.029,200.221 338.525,199.727C339.673,198.254 336.716,200.875 317.184,218.385C307.003,227.549 298.307,235.24 297.979,235.24C296.829,235.569 267.281,225.912 267.281,225.258C267.116,224.44 264.985,225.422 320.141,197.437C340.331,187.125 357.072,178.779 357.567,178.779C358.06,178.779 358.388,178.944 358.388,179.108C358.388,179.762 341.809,247.679 341.479,248.172C341.151,248.826 338.853,248.336 323.26,243.426" style="fill:rgb(92,148,170);fill-rule:nonzero;"/>
    </g>
</svg>
